<svg width="34" height="36" viewBox="0 0 34 36" fill="none" xmlns="http://www.w3.org/2000/svg">
<path d="M28.3333 0H5C2.24333 0 0 2.48542 0 5.53957V10.7671C0 12.7115 0.636667 14.4786 1.66667 15.8376V33.2374C1.66667 33.7271 1.84226 34.1968 2.15482 34.5431C2.46738 34.8894 2.89131 35.0839 3.33333 35.0839H16.6667C17.1087 35.0839 17.5326 34.8894 17.8452 34.5431C18.1577 34.1968 18.3333 33.7271 18.3333 33.2374V24.0048H25V33.2374C25 33.7271 25.1756 34.1968 25.4882 34.5431C25.8007 34.8894 26.2246 35.0839 26.6667 35.0839H30C30.442 35.0839 30.866 34.8894 31.1785 34.5431C31.4911 34.1968 31.6667 33.7271 31.6667 33.2374V15.8358C32.6967 14.4786 33.3333 12.7115 33.3333 10.7652V5.53957C33.3333 2.48542 31.09 0 28.3333 0ZM30 5.53957V10.7671C30 12.8721 28.585 14.6669 26.8483 14.7685L26.6667 14.7722C24.8283 14.7722 23.3333 13.1159 23.3333 11.0791V3.69305H28.3333C29.2533 3.69305 30 4.52213 30 5.53957ZM13.3333 11.0791V3.69305H20V11.0791C20 13.1159 18.505 14.7722 16.6667 14.7722C14.8283 14.7722 13.3333 13.1159 13.3333 11.0791ZM3.33333 5.53957C3.33333 4.52213 4.08 3.69305 5 3.69305H10V11.0791C10 13.1159 8.505 14.7722 6.66667 14.7722L6.485 14.7666C4.74833 14.6669 3.33333 12.8721 3.33333 10.7671V5.53957ZM13.3333 25.8513H6.66667V20.3118H13.3333V25.8513Z" fill="url(#paint0_linear_45_2389)"/>
<defs>
<linearGradient id="paint0_linear_45_2389" x1="16.6667" y1="0" x2="16.6667" y2="35.0839" gradientUnits="userSpaceOnUse">
<stop stop-color="#BF3131"/>
<stop offset="1" stop-color="#EA6969"/>
</linearGradient>
</defs>
</svg>
